<?xml version="1.0" encoding="UTF-8" standalone="no"?><!DOCTYPE svg PUBLIC "-//W3C//DTD SVG 1.1//EN" "http://www.w3.org/Graphics/SVG/1.1/DTD/svg11.dtd"><svg width="100%" height="100%" viewBox="0 0 1875 2932" version="1.1" xmlns="http://www.w3.org/2000/svg" xmlns:xlink="http://www.w3.org/1999/xlink" xml:space="preserve" xmlns:serif="http://www.serif.com/" style="fill-rule:evenodd;clip-rule:evenodd;stroke-linejoin:round;stroke-miterlimit:2;"><g transform="matrix(3.125,0,0,3.125,0,0)"><g transform="matrix(0.243044,0,0,0.243044,364.845309,353.30264)"><g transform="matrix(1,0,0,1,-814.666667,-896)"><g transform="matrix(4.166667,0,0,4.166667,0,0)"><path d="M0,0l391,0l-189,260l-1,169l-11,-5l0,-163l-190,-261" style="fill:#ff78a1;"/></g></g></g><g transform="matrix(0.242701,0,0,0.242701,275,619.600973)"><g opacity="0.86"><g transform="matrix(1,0,0,1,-1096,-1333.333333)"><g transform="matrix(4.166667,0,0,4.166667,0,0)"><g transform="matrix(1,0,0,1,-13,-299)"><path d="M163,603c0,0 187.333,80.5 227,91c13.31,3.523 -4.141,-87.449 -2.527,-95.522c1.667,-8.333 13.527,-28.478 13.527,-28.478c0,0 -29.776,-8.162 -41,-18c-13.5,-11.833 -40,-53 -40,-53c0,0 -45.829,-11.93 -49,-3c-2.431,6.844 -3,26 -3,26l-5,0c0,0 -39.393,7.275 -41.774,14.958c-2.224,7.176 2.95,11.265 1.774,12.042c-2.177,1.436 -10.039,-9.823 -12,-9l-34,29l-14,34Z" style="fill:#d95b60;"/></g><g id="palm" transform="matrix(1,0,0,1,-13,-299)"><path d="M388,692l-20,47l-84,199l179,0l49,-240c1.549,-30.68 32.513,-68.321 23,-117c-3.414,-17.473 -9.208,-34.581 -9.208,-34.581c0,0 -5.977,-13.074 -7.792,-14.419c-12.46,-9.236 -76.464,-1.637 -76.83,4.104c-0.411,6.445 -4.537,24.191 -22.024,30.119c-5.642,1.913 -16.061,4.466 -18.146,3.776c-2.085,-0.69 -17.139,30.472 -15.991,39.046c1.552,11.587 2.66,23.253 3.081,34.936c0.498,13.826 -0.505,50.76 -0.09,48.017l-0,0.002Z" style="fill:#d95b60;"/></g><g id="full-finger-1" transform="matrix(1,0.000776,-0.000776,1,-12.612824,-299.229465)"><g id="finger-1" transform="matrix(1.070704,0,0,1.070704,-22.912686,-19.873956)"><path d="M274.244,481.883c-0.513,-1.065 9.975,-71.483 11.952,-74.103c2.492,-11.405 8.987,-46.191 8.987,-46.191c0,0 2.396,-15.442 4.8,-25.185c1.144,-4.637 4.943,-19.551 5.439,-24.655c0.297,-3.057 1.555,-7.635 3.193,-10.421c2.415,-4.105 5.716,-2.783 8.262,0.609c1.573,2.094 2.086,4.416 2.994,6.82c0.531,1.403 2.488,6.764 3.191,10.284c0.837,4.189 1.169,13.128 1.832,14.851c2.689,6.992 4.99,11.973 5.831,19.024c0.787,6.597 1.787,28.039 1.787,34.665c0,7.563 -4.891,34.315 -5.464,41.845c-0.208,2.729 -6.274,27.244 -6.286,33.287c-0.017,8.209 0.027,15.922 -0.83,16.873c-7.777,8.634 -41.141,11.739 -45.688,2.297Z" style="fill:#d95b60;fill-rule:nonzero;"/></g><g id="bone-1" transform="matrix(1,0,0,1,1.115815,-1.81477)"><circle cx="294.353" cy="500.579" r="25" style="fill:#d95b60;"/></g></g><g id="full-finger-2" transform="matrix(0.999997,-0.002387,0.002387,0.999997,-14.264376,-298.418468)"><g id="finger-2" transform="matrix(0.994439,0,0,0.994439,0.119554,-0.400824)"><path d="M220.035,540.177c-1.316,-1.308 -4.335,-10.189 -9.41,-28.352c-3.624,-12.968 -10.103,-29.25 -10.77,-30.906c-1.387,-3.442 -6.633,-19.464 -10.917,-30.325c-4.284,-10.862 -8.611,-22.598 -10.171,-29.538c-1.031,-4.584 -2.586,-8.871 -4.187,-13.209c-1.601,-4.338 -3.249,-8.726 -4.466,-13.514c-1.468,-4.496 -3.076,-9.152 -4.721,-13.811c-1.645,-4.659 -3.326,-9.32 -4.939,-13.824c-1.734,-4.843 -4.635,-10.757 -6.798,-16.791c-2.162,-6.033 -4.421,-16.141 -1.235,-16.138c4.028,0.004 12.079,3.182 12.197,3.307c4.44,4.707 13.723,17.4 24.192,32.676c10.468,15.275 21.116,32.127 26.273,43.138c1.82,3.885 11.748,23.418 13.672,27.828c1.924,4.41 6.615,14.292 7.527,16.228c1.47,3.119 2.169,5.262 3.058,7.417c0.889,2.155 1.97,4.321 4.203,7.486c0,1.667 0.855,3.472 1.83,5.214c0.975,1.742 2.071,3.42 2.55,4.833c2.007,5.918 4.618,11.116 7.392,16.217c2.774,5.101 7.486,20.061 7.656,20.674c2.923,10.536 -37.651,26.64 -42.936,21.39Z" style="fill:#d95b60;fill-rule:nonzero;"/></g><g id="bone-2" transform="matrix(1.02241,0,0,1.02241,-7.529865,-14.773334)"><circle cx="243.112" cy="530.736" r="23.963" style="fill:#d95b60;"/></g></g><g id="full-finger-3" transform="matrix(1,0,0,1,-13,-299)"><g id="finger-3" transform="matrix(1.015226,0,0,1.015226,-1.602522,-6.319392)"><path d="M171.006,560.499c-3.686,-5.859 -13.409,-30.296 -18.795,-39.415c-7.931,-13.426 -12.091,-23.887 -19.021,-41.423c-6.905,-17.471 -38.841,-73.232 -33.99,-77.901c1.026,-0.987 6.188,0.148 7.375,0.933c3.715,2.458 9.751,4.467 12.44,8.018c10.777,14.232 17.233,16.928 24.915,25.138c6.741,7.204 20.562,27.808 25.313,36.285c7.921,14.132 14.715,28.252 24.25,39.357c4.486,5.224 6.983,12.428 10.633,18.267c3.097,4.956 3.919,6.654 4.638,8.216c4.915,10.675 -29.56,35.556 -37.758,22.525Z" style="fill:#d95b60;fill-rule:nonzero;"/></g><g id="bone-3" transform="matrix(0.958333,0,0,0.958333,4.717139,17.732627)"><circle cx="195.695" cy="557.53" r="24" style="fill:#d95b60;"/></g></g><g id="full-finger-4" transform="matrix(0.999998,-0.001746,0.001746,0.999998,-14.023127,-298.709207)"><g id="finger-4" transform="matrix(1.054132,0,0,1.054132,-0.347928,-29.703593)"><path d="M163.011,568.497c0,0 -16.369,-5.866 -25.831,-10.173c-5.684,-2.587 -38.179,-15.042 -43.396,-16.426c-9.065,-2.404 -18.195,-4.593 -27.879,-5.487c-2.263,-0.209 -6.069,-1.121 -8.199,-0.494c-0.798,0.235 -4.946,0.162 -5.727,-0.047c-3.344,-0.893 -15.714,-1.084 -19.594,-1.084c-4.551,0 -8.565,-0.597 -12.49,1.974c-2.466,1.614 -6.326,1.165 -6.795,4.762c-0.411,3.151 5.76,4.856 7.653,5.657c8.81,3.726 18.348,5.635 27.088,9.276c20.423,8.506 34.633,12.026 54.856,21.216c3.304,1.501 20.082,8.183 16.587,7.275c-2.275,-0.591 33.507,15.235 34.87,14.643c10.058,-4.372 15.542,-31.148 8.858,-31.092l-0.001,0Z" style="fill:#d95b60;fill-rule:nonzero;"/></g><g id="bone-4" transform="matrix(1.10056,0,0,1.10056,-13.427711,-57.125718)"><ellipse cx="163" cy="584" rx="15.901" ry="16" style="fill:#d95b60;"/></g></g><g id="full-finger-5" transform="matrix(0.999999,-0.001415,0.001415,0.999999,-13.771895,-298.320443)"><g id="finger-5" transform="matrix(0.965285,0,0,0.955654,13.399872,13.880272)"><path d="M446.22,550.932c-2.068,1.784 -7.795,-26.657 -26.567,-61.203c-1.396,-2.569 -13.148,-31.98 -18.013,-48.538c-5.276,-17.955 -12.395,-48.11 -13.64,-59.191c-1.005,-8.944 0,-27 0,-27c0,0 -2.833,-22 -2,-29c0.582,-4.887 4.667,-12.667 7,-13c2.333,-0.333 7,11 7,11l11,24l17,41l23,44l24,33l17,22c0,0 35.85,56.482 33,64c-2.85,7.518 -29.583,-17.385 -50.098,-18.894c-20.878,-1.536 -22.424,12.429 -28.682,17.826Z" style="fill:#d95b60;"/></g><g id="bone-5" transform="matrix(1.6,0.001241,-0.001241,1.6,10.125638,-255.527681)"><circle cx="294.353" cy="500.579" r="25" style="fill:#5bd95d;"/></g></g></g></g></g></g><g transform="matrix(0.241657,0,0,0.241657,364.406868,268.380092)"><g opacity="0.33"><g transform="matrix(1,0,0,1,-579.333333,-338)"><g transform="matrix(4.166667,0,0,4.166667,0,0)"><path d="M0,0l278,0c0.669,0.275 -84.784,129.45 -115,154c-12.935,10.51 -37.885,11.446 -50,0c-27.167,-25.667 -113,-154 -113,-154" style="fill:#7b37d5;"/></g></g></g></g></g></svg>