<?xml version="1.0" encoding="UTF-8" standalone="no"?>
<!DOCTYPE svg PUBLIC "-//W3C//DTD SVG 1.1//EN" "http://www.w3.org/Graphics/SVG/1.1/DTD/svg11.dtd">
<svg width="100%" height="100%" viewBox="0 0 1875 2932" version="1.1" xmlns="http://www.w3.org/2000/svg" xmlns:xlink="http://www.w3.org/1999/xlink" xml:space="preserve" xmlns:serif="http://www.serif.com/" style="fill-rule:evenodd;clip-rule:evenodd;stroke-linejoin:round;stroke-miterlimit:2;">
    <g transform="matrix(3.387913,0,0,3.197693,-1.462582,-1.837673)">
        <g transform="matrix(0.295167,0,0,0.312725,0.726873,0.574687)">
            <g id="glass">
                <path d="M528,424L1115,1239L1119,1780L1160,1782L1155,1239L1746,421L528,424" style="fill:rgb(243,243,245);"/>
            </g>
        </g>
        <g id="liquid" transform="matrix(0.966181,0,0,0.966181,200.793552,185.449124)">
            <path d="M9.165,-0.971L271.89,-1.618C272.559,-1.343 193.216,128.803 163,153.353C150.065,163.863 125.726,163.18 113.611,151.734C86.444,126.067 9.165,-0.971 9.165,-0.971Z" style="fill:rgb(123,55,213);"/>
        </g>
        <g id="character" transform="matrix(0.309003,0,0,0.309003,-15.223096,2.939684)">
            <path d="M1091,663C1091.811,663.622 1117.799,672.395 1121,686C1121.843,689.584 1120.742,693.54 1122,697C1122.342,697.94 1124.581,696.092 1125,697C1126.179,699.555 1123.21,700.291 1134,731C1135.93,736.492 1139.159,741.477 1141,747C1142.509,751.528 1142.227,756.569 1144,761C1146.086,766.216 1162.634,778.227 1143,805C1137.096,813.051 1135.859,812.286 1126,811C1104.117,808.146 1106.822,802.14 1105,802C1103.062,801.851 1102.303,805.08 1102,807C1101.272,811.61 1103.069,816.457 1102,821C1101.618,822.622 1099.656,824.184 1098,824C1095.879,823.764 1095.04,820.628 1093,820C1090.451,819.216 1087.598,820.6 1085,820C1083.106,819.563 1081.794,817.748 1080,817C1077.76,816.067 1075.041,816.312 1073,815C1070.224,813.216 1068.494,810.161 1066,808C1055.643,799.024 1049.678,800.879 1048,800C1046.31,799.115 1048.957,794.676 1003,777C972.43,765.242 971.606,768.117 969,767C965.686,765.58 963.225,762.612 960,761C947.529,754.765 934.205,757.541 932,758C929.693,758.481 928.774,761.448 927,763C917.094,771.667 931.6,776.911 932,777C933.302,777.289 934.807,776.404 936,777C937.075,777.537 936.813,779.813 938,780C943.597,780.884 949.359,779.463 955,780C956.484,780.141 960.398,779.717 961.866,779.976C980.177,783.207 977.454,782.578 979,783C980.608,783.439 981.439,785.415 983,786C984.248,786.468 986.486,788.143 987,789C988.78,791.967 1001.095,796.369 1004,800C1011.075,808.843 1057.749,840.617 1066,848C1069.162,850.829 1071.606,854.454 1075,857C1077.031,858.523 1080.205,858.205 1082,860C1084.108,862.108 1084.303,865.549 1086,868C1092.821,877.852 1095.563,874.127 1096,875C1097.193,877.385 1095.795,880.341 1096,883C1096.387,888.034 1098.09,888.683 1095,891C1094.467,891.4 1093.37,890.445 1093,891C1091.849,892.727 1093.16,893.328 1081,914C1078.204,910.205 1073.796,907.795 1071,904C1069.053,901.357 1068.775,897.762 1067,895C1062.335,887.743 1058.873,889.222 1058,877C1056.791,860.08 1041.642,873.922 1040,874C1033.674,874.301 1027.284,873.214 1021,874C1019.071,874.241 1017.862,876.441 1016,877C1014.404,877.479 1012.532,876.343 1011,877C1009.895,877.473 1009.769,879.077 1009,880C1008.095,881.086 1006.117,881.591 1006,883C1005.745,886.063 1008.255,888.937 1008,892C1019.807,898.336 1036.193,889.664 1048,896C1053.295,898.841 1047.668,908.14 1049,914C1049.418,915.839 1052.001,916.401 1053,918C1055.37,921.792 1056.699,926.165 1059,930C1059.728,931.213 1061.553,931.658 1062,933C1062.632,934.897 1061.515,937.06 1062,939C1062.21,939.838 1071.668,961.541 1086,949C1089.867,945.616 1091.969,942.015 1092,942C1093.193,941.404 1094.807,942.596 1096,942C1097.596,941.202 1096.237,939.47 1102,937C1112.04,932.697 1112.27,927.647 1114,926C1118.637,921.584 1124.363,918.416 1129,914C1131.414,911.701 1132.643,908.357 1135,906C1137.357,903.643 1140.643,902.357 1143,900C1164.333,878.667 1185.667,857.333 1207,836C1208.716,834.284 1207.421,830.842 1209,829C1211.648,825.911 1216.372,825.106 1219,822C1220.31,820.452 1218.665,817.526 1220,816C1222.747,812.86 1223.78,815.709 1272,812C1274.636,809.803 1278.364,809.197 1281,807C1282.493,805.756 1282.189,802.704 1284,802C1288.701,800.172 1294.14,801.35 1299,800C1300.363,799.621 1300.658,797.447 1302,797C1303.897,796.368 1306.06,797.485 1308,797C1308.915,796.771 1309.117,795.331 1310,795C1311.898,794.288 1314.339,795.163 1316,794C1317.969,792.622 1317.672,788.597 1320,788C1331.375,785.083 1344.581,786.917 1355.955,785.012C1359.435,785.012 1361.52,787 1365,787C1366.054,787 1366.979,784.391 1366,784C1360.962,781.985 1355.038,783.015 1350,781L1351,778C1351,778 1363.246,778.5 1366.269,778C1367.633,777.774 1370.494,775.251 1369.134,775C1366.423,774.5 1350,775 1350,775C1353.712,773.001 1356.377,771.987 1360.09,769.988C1360.58,769.724 1363.536,768.199 1364.784,766.895C1365.897,765.733 1365.458,764.748 1363.776,764.988C1363.038,765.093 1358.707,767.764 1358,768C1347.172,771.609 1349.444,765.397 1350,765C1351.918,763.63 1357.858,762.199 1359.866,760.964C1362.483,759.353 1360.187,758.206 1358.224,759.024C1357.264,759.424 1351,762 1351,762C1349.36,762.298 1345.904,764.458 1345,765C1338.737,768.758 1339.054,766.645 1337.753,760.468C1337.447,759.013 1338.855,754.466 1338,753C1339.526,749.572 1335.201,752.619 1335.201,752.619C1335.201,752.619 1334.438,761.138 1334,763C1333.715,764.213 1336.643,767.297 1331,772C1329.914,772.905 1329.372,774.657 1328,775C1323.784,776.054 1319.25,775.089 1315,776C1314.271,776.156 1314.735,777.877 1314,778C1310.383,778.603 1306.573,777.176 1303,778C1301.829,778.27 1302.171,780.73 1301,781C1297.427,781.824 1293.557,780.111 1290,781C1288.977,781.256 1290.031,783.779 1289,784C1284.763,784.908 1280.267,783.247 1276,784C1275.409,784.104 1268.614,789.223 1257,788C1255.342,787.826 1254.603,785.458 1253,785C1249.779,784.08 1246.347,784.139 1243,784C1238.337,783.806 1233.627,784.604 1229,784C1225.864,783.591 1223.136,781.409 1220,781L1219,778C1220.2,777.76 1234,775 1234,775C1234.536,774.679 1233.889,774.111 1239,769C1250.079,757.921 1243.953,755.859 1239,741C1237.296,735.888 1238.947,734.237 1234,733C1229.269,731.817 1229.354,735.558 1229,736C1225.777,740.029 1221.886,732.812 1217,737C1215.868,737.97 1216.24,740.173 1215,741C1214.463,741.358 1214.411,740.941 1207,742C1203.004,742.571 1198.347,736.306 1196,741C1195.385,742.229 1195.859,743.927 1195,745C1194.342,745.823 1192.31,744.993 1192,746C1190.82,749.836 1192.18,754.164 1191,758C1187.273,758 1183.727,760 1180,760C1178.909,760 1179.136,759.618 1175,753C1174.25,751.801 1172.557,751.3 1172,750C1171,747.667 1170,745.333 1169,743C1168.475,741.774 1169.74,740.109 1169,739C1168.173,737.76 1165.74,738.294 1165,737C1164.173,735.553 1165.585,733.561 1165,732C1164.503,730.676 1162.557,730.3 1162,729C1161.475,727.774 1162.525,726.226 1162,725C1161.443,723.7 1159.632,723.265 1159,722C1158.553,721.106 1159.514,719.857 1159,719C1158.382,717.969 1156.596,718.043 1156,717C1153.85,713.238 1153.028,708.83 1151,705C1150.001,703.114 1147.955,701.909 1147,700C1146.24,698.48 1146.943,696.414 1146,695C1145.415,694.123 1143.471,694.943 1143,694C1142.255,692.509 1143.49,690.593 1143,689C1142.123,686.15 1139.877,683.85 1139,681C1135.905,679.593 1132.095,680.407 1129,679C1123.782,676.628 1132.546,654.639 1131,650C1129.836,646.508 1129.214,650.048 1127,653C1126.553,653.596 1125.686,656.857 1125,658C1124.485,658.859 1119.447,654.894 1119,654C1118.667,653.333 1117.277,653.692 1117,653C1115.859,650.147 1113.435,641.239 1112.134,638.94C1111.65,638.083 1109.235,639.671 1109.194,640.215C1109.116,641.229 1113,652 1113,652C1110.143,659.141 1110.63,650.174 1106,644C1101.484,637.978 1101.155,641.514 1100.955,642.012C1099.769,644.979 1107.047,652.19 1108,656C1108.886,659.543 1095.277,647.595 1095.277,647.595C1095.277,647.595 1092.597,648.357 1094,650.012C1097.535,655.5 1101.286,657.203 1101.866,657.976C1102.866,659.309 1101.955,661.655 1102.955,662.988C1100.289,661.655 1096.667,661.333 1094,660C1093.106,659.553 1091.707,659.293 1091,660C1090.293,660.707 1091.707,662.293 1091,663L1059,779"/>
            <path d="M1193,788C1193,788 1193.167,783 1192,782C1190.833,781 1187,782.833 1186,782C1185.258,781.382 1186.301,776.957 1186,777C1184.833,777.167 1180.333,781.167 1179,783C1178,784.375 1178.211,785.309 1177.045,785.976C1175.878,786.643 1172,787 1172,787L1169,791L1165,794L1159.645,805.204L1159,821L1154,826L1150,829L1152,835C1152,835 1167.167,834.5 1171,834C1172.478,833.807 1175,832 1175,832L1180,830L1185,826L1197,814L1202,811L1203,804C1203,804 1204.004,800.494 1205,799C1206,797.5 1208.5,796.667 1209,795C1209.5,793.333 1209.858,789.813 1208,789C1205.333,787.833 1193,788 1193,788" style="fill:white;"/>
            <g transform="matrix(1,0,0,1,-0.955224,-1.012047)">
                <path d="M1187,796L1184,799L1184,804L1182,807L1178,810L1178,813L1173,814L1167,816L1165,820L1160,825L1160,829L1155,834L1156,837L1162,834L1163,830L1166,829L1167,824L1169,822L1170,819L1177,818L1181,816L1182,813L1184,810L1188,803L1187,796L1194,797L1194,789L1188,791L1187,796" style="fill:rgb(14,9,3);"/>
            </g>
        </g>
        <g id="decor" transform="matrix(0.30894,0,0,0.307231,-6.000733,0.572725)">
            <g transform="matrix(0.894324,-0.620033,0.620033,0.894324,-141.743483,508.603572)">
                <ellipse cx="764" cy="348" rx="85" ry="102" style="fill:rgb(235,235,235);"/>
            </g>
            <g id="toothpick" transform="matrix(0.979898,0,0,0.985352,1.610273,-0.477094)">
                <path d="M553,79L614,175L1021.175,723.759L1070.175,772.759L1037.175,717.759L631,165L553,79" style="fill:rgb(255,0,0);"/>
            </g>
        </g>
        <g id="hand" transform="matrix(0.223954,0,0,0.241946,15.737053,288.799212)">
            <g transform="matrix(4.089027,0,0,4.089027,0.028164,0.0806)">
                <g transform="matrix(1,0,0,1,-13,-299)">
                    <path d="M163,603C163,603 350.333,683.5 390,694C403.31,697.523 385.859,606.551 387.473,598.478C389.14,590.145 401,570 401,570C401,570 371.224,561.838 360,552C346.5,540.167 320,499 320,499C320,499 274.171,487.07 271,496C268.569,502.844 268,522 268,522L263,522C263,522 223.607,529.275 221.226,536.958C219.002,544.134 224.176,548.223 223,549C220.823,550.436 212.961,539.177 211,540L177,569L163,603Z" style="fill:rgb(217,91,96);"/>
                </g>
                <g id="palm" transform="matrix(1,0,0,1,-13,-299)">
                    <path d="M388,692L368,739L284,938L463,938L512,698C513.549,667.32 544.513,629.679 535,581C531.586,563.527 525.792,546.419 525.792,546.419C525.792,546.419 519.815,533.345 518,532C505.54,522.764 441.536,530.363 441.17,536.104C440.759,542.549 436.633,560.295 419.146,566.223C413.504,568.136 403.085,570.689 401,569.999C398.915,569.309 383.861,600.471 385.009,609.045C386.561,620.632 387.669,632.298 388.09,643.981C388.588,657.807 387.585,694.741 388,691.998L388,692Z" style="fill:rgb(217,91,96);"/>
                </g>
                <g id="full-finger-1" transform="matrix(1,0.000776,-0.000776,1,-12.612824,-299.229465)">
                    <g id="finger-1" transform="matrix(1.070704,0,0,1.070704,-22.912686,-19.873956)">
                        <path d="M274.244,481.883C273.731,480.818 284.219,410.4 286.196,407.78C288.688,396.375 295.183,361.589 295.183,361.589C295.183,361.589 297.579,346.147 299.983,336.404C301.127,331.767 304.926,316.853 305.422,311.749C305.719,308.692 306.977,304.114 308.615,301.328C311.03,297.223 314.331,298.545 316.877,301.937C318.45,304.031 318.963,306.353 319.871,308.757C320.402,310.16 322.359,315.521 323.062,319.041C323.899,323.23 324.231,332.169 324.894,333.892C327.583,340.884 329.884,345.865 330.725,352.916C331.512,359.513 332.512,380.955 332.512,387.581C332.512,395.144 327.621,421.896 327.048,429.426C326.84,432.155 320.774,456.67 320.762,462.713C320.745,470.922 320.789,478.635 319.932,479.586C312.155,488.22 278.791,491.325 274.244,481.883Z" style="fill:rgb(217,91,96);fill-rule:nonzero;"/>
                    </g>
                    <g id="bone-1" transform="matrix(1,0,0,1,1.115815,-1.81477)">
                        <circle cx="294.353" cy="500.579" r="25" style="fill:rgb(217,91,96);"/>
                    </g>
                </g>
                <g id="full-finger-2" transform="matrix(0.999997,-0.002387,0.002387,0.999997,-14.264376,-298.418468)">
                    <g id="finger-2" transform="matrix(0.994439,0,0,0.994439,0.119554,-0.400824)">
                        <path d="M220.035,540.177C218.719,538.869 215.7,529.988 210.625,511.825C207.001,498.857 200.522,482.575 199.855,480.919C198.468,477.477 193.222,461.455 188.938,450.594C184.654,439.732 180.327,427.996 178.767,421.056C177.736,416.472 176.181,412.185 174.58,407.847C172.979,403.509 171.331,399.121 170.114,394.333C168.646,389.837 167.038,385.181 165.393,380.522C163.748,375.863 162.067,371.202 160.454,366.698C158.72,361.855 155.819,355.941 153.656,349.907C151.494,343.874 149.235,333.766 152.421,333.769C156.449,333.773 164.5,336.951 164.618,337.076C169.058,341.783 178.341,354.476 188.81,369.752C199.278,385.027 209.926,401.879 215.083,412.89C216.903,416.775 226.831,436.308 228.755,440.718C230.679,445.128 235.37,455.01 236.282,456.946C237.752,460.065 238.451,462.208 239.34,464.363C240.229,466.518 241.31,468.684 243.543,471.849C243.543,473.516 244.398,475.321 245.373,477.063C246.348,478.805 247.444,480.483 247.923,481.896C249.93,487.814 252.541,493.012 255.315,498.113C258.089,503.214 262.801,518.174 262.971,518.787C265.894,529.323 225.32,545.427 220.035,540.177Z" style="fill:rgb(217,91,96);fill-rule:nonzero;"/>
                    </g>
                    <g id="bone-2" transform="matrix(1.02241,0,0,1.02241,-7.529865,-14.773334)">
                        <circle cx="243.112" cy="530.736" r="23.963" style="fill:rgb(217,91,96);"/>
                    </g>
                </g>
                <g id="full-finger-3" transform="matrix(1,0,0,1,-13,-299)">
                    <g id="finger-3" transform="matrix(1.015226,0,0,1.015226,-1.602522,-6.319392)">
                        <path d="M171.006,560.499C167.32,554.64 157.597,530.203 152.211,521.084C144.28,507.658 140.12,497.197 133.19,479.661C126.285,462.19 94.349,406.429 99.2,401.76C100.226,400.773 105.388,401.908 106.575,402.693C110.29,405.151 116.326,407.16 119.015,410.711C129.792,424.943 136.248,427.639 143.93,435.849C150.671,443.053 164.492,463.657 169.243,472.134C177.164,486.266 183.958,500.386 193.493,511.491C197.979,516.715 200.476,523.919 204.126,529.758C207.223,534.714 208.045,536.412 208.764,537.974C213.679,548.649 179.204,573.53 171.006,560.499Z" style="fill:rgb(217,91,96);fill-rule:nonzero;"/>
                    </g>
                    <g id="bone-3" transform="matrix(0.958333,0,0,0.958333,4.717139,17.732627)">
                        <circle cx="195.695" cy="557.53" r="24" style="fill:rgb(217,91,96);"/>
                    </g>
                </g>
                <g id="full-finger-4" transform="matrix(0.999998,-0.001746,0.001746,0.999998,-14.023127,-298.709207)">
                    <g id="finger-4" transform="matrix(1.054132,0,0,1.054132,-0.347928,-29.703593)">
                        <path d="M163.011,568.497C163.011,568.497 146.642,562.631 137.18,558.324C131.496,555.737 99.001,543.282 93.784,541.898C84.719,539.494 75.589,537.305 65.905,536.411C63.642,536.202 59.836,535.29 57.706,535.917C56.908,536.152 52.76,536.079 51.979,535.87C48.635,534.977 36.265,534.786 32.385,534.786C27.834,534.786 23.82,534.189 19.895,536.76C17.429,538.374 13.569,537.925 13.1,541.522C12.689,544.673 18.86,546.378 20.753,547.179C29.563,550.905 39.101,552.814 47.841,556.455C68.264,564.961 82.474,568.481 102.697,577.671C106.001,579.172 122.779,585.854 119.284,584.946C117.009,584.355 152.791,600.181 154.154,599.589C164.212,595.217 169.696,568.441 163.012,568.497L163.011,568.497Z" style="fill:rgb(217,91,96);fill-rule:nonzero;"/>
                    </g>
                    <g id="bone-4" transform="matrix(1.10056,0,0,1.10056,-13.427711,-57.125718)">
                        <ellipse cx="163" cy="584" rx="15.901" ry="16" style="fill:rgb(217,91,96);"/>
                    </g>
                </g>
                <g id="full-finger-5" transform="matrix(0.999999,-0.001415,0.001415,0.999999,-13.771895,-298.320443)">
                    <g id="finger-5" transform="matrix(0.965285,0,0,0.955654,13.399872,13.880272)">
                        <path d="M446.22,550.932C444.152,552.716 438.425,524.275 419.653,489.729C418.257,487.16 406.505,457.749 401.64,441.191C396.364,423.236 389.245,393.081 388,382C386.995,373.056 388,355 388,355C388,355 385.167,333 386,326C386.582,321.113 390.667,313.333 393,313C395.333,312.667 400,324 400,324L411,348L428,389L451,433L475,466L492,488C492,488 527.85,544.482 525,552C522.15,559.518 495.417,534.615 474.902,533.106C454.024,531.57 452.478,545.535 446.22,550.932Z" style="fill:rgb(217,91,96);"/>
                    </g>
                    <g id="bone-5" transform="matrix(1.6,0.001241,-0.001241,1.6,10.125638,-255.527681)">
                        <circle cx="294.353" cy="500.579" r="25" style="fill:rgb(91,217,93);"/>
                    </g>
                </g>
            </g>
        </g>
        <g id="title" transform="matrix(0.295149,0.003436,-0.003243,0.312707,-1.358132,0.762285)">
            <g transform="matrix(1,0,0,1,-415,109)">
                <text x="727.477px" y="1889.339px" style="font-family:'Futura-Medium', 'Futura', sans-serif;font-weight:500;font-size:307px;fill:rgb(0,33,255);">G<tspan x="1063.744px 1326.259px 1577.531px 1869.727px " y="1889.339px 1889.339px 1889.339px 1889.339px ">REAT</tspan></text>
            </g>
            <g transform="matrix(1,0,0,1,-544,542)">
                <text x="727.477px" y="1889.339px" style="font-family:'Futura-Medium', 'Futura', sans-serif;font-weight:500;font-size:307px;fill:rgb(0,33,255);">G<tspan x="1053.251px 1345.446px 1570.936px 1827.604px 2075.129px " y="1889.339px 1889.339px 1889.339px 1889.339px 1889.339px ">ATSBY</tspan></text>
            </g>
            <g transform="matrix(1,0,0,1,2,47)">
                <g transform="matrix(140,0,0,140,1103.069062,1523.212078)">
                </g>
                <text x="807.899px" y="1523.212px" style="font-family:'Futura-Medium', 'Futura', sans-serif;font-weight:500;font-size:140px;fill:rgb(0,33,255);">T<tspan x="898.335px 1023.909px " y="1523.212px 1523.212px ">HE</tspan></text>
            </g>
            <g transform="matrix(1,0,0,1,-865,471)">
                <text x="1235.923px" y="2227.688px" style="font-family:'Futura-Medium', 'Futura', sans-serif;font-weight:500;font-size:94px;fill:rgb(0,33,255);"><tspan x="1235.923px 1291.798px 1320.806px 1361.161px 1429.888px 1509.217px 1604.61px 1663.882px 1709.229px 1749.585px 1811.289px 1852.935px 1912.207px 1984.88px 2077.979px 2145.053px 2215.57px 2299.121px 2354.721px " y="2227.688px 2227.688px 2227.688px 2227.688px 2227.688px 2227.688px 2227.688px 2227.688px 2227.688px 2227.688px 2227.688px 2227.688px 2227.688px 2227.688px 2227.688px 2227.688px 2227.688px 2227.688px 2227.688px ">F. SCOTT FITZGERALD</tspan></text>
            </g>
        </g>
    </g>
</svg>
